<svg width="41" height="41" viewBox="0 0 41 41" fill="none" xmlns="http://www.w3.org/2000/svg">
<g clip-path="url(#clip0_7_4)">
<path d="M40.5 20.5001C40.5 9.4544 31.5457 0.500107 20.5 0.500107C9.4543 0.500107 0.5 9.4544 0.5 20.5001C0.5 30.4827 7.81371 38.7567 17.375 40.2571V26.2814H12.2969V20.5001H17.375V16.0939C17.375 11.0814 20.3609 8.31261 24.9293 8.31261C27.1175 8.31261 29.4062 8.70323 29.4062 8.70323V13.6251H26.8843C24.3998 13.6251 23.625 15.1668 23.625 16.7484V20.5001H29.1719L28.2852 26.2814H23.625V40.2571C33.1863 38.7567 40.5 30.4827 40.5 20.5001Z" fill="#DFA1A1"/>
</g>
<defs>
<clipPath id="clip0_7_4">
<rect width="40" height="40" fill="white" transform="translate(0.5 0.500122)"/>
</clipPath>
</defs>
</svg>
