<svg width="41" height="41" viewBox="0 0 41 41" fill="none" xmlns="http://www.w3.org/2000/svg">
<path d="M12.217 0.639755C10.0889 0.740156 8.63571 1.07976 7.3653 1.57896C6.05049 2.09137 4.93608 2.77898 3.82727 3.89179C2.71845 5.0046 2.03565 6.11981 1.52684 7.43662C1.03444 8.70984 0.700834 10.1643 0.606834 12.2935C0.512833 14.4227 0.492032 15.1071 0.502432 20.5384C0.512833 25.9696 0.536833 26.6504 0.640034 28.784C0.741635 30.9117 1.08004 32.3645 1.57924 33.6353C2.09245 34.9501 2.77926 36.0641 3.89247 37.1733C5.00568 38.2825 6.12009 38.9637 7.4401 39.4733C8.71212 39.965 10.1669 40.3002 12.2958 40.3934C14.4246 40.4866 15.1098 40.5082 20.5394 40.4978C25.9691 40.4874 26.6527 40.4634 28.7859 40.3622C30.9191 40.261 32.3644 39.9202 33.6356 39.4233C34.9504 38.9089 36.0652 38.2233 37.1736 37.1097C38.282 35.9961 38.9644 34.8801 39.4728 33.5625C39.9656 32.2905 40.3004 30.8357 40.3928 28.7084C40.486 26.5736 40.508 25.892 40.4976 20.4616C40.4872 15.0311 40.4628 14.3503 40.3616 12.2175C40.2604 10.0847 39.9216 8.63624 39.4228 7.36462C38.9088 6.04981 38.2228 4.9366 37.11 3.82659C35.9972 2.71658 34.8804 2.03457 33.5632 1.52736C32.2904 1.03496 30.8363 0.699355 28.7075 0.607354C26.5787 0.515353 25.8935 0.491753 20.4618 0.502153C15.0302 0.512553 14.3502 0.535754 12.217 0.639755ZM12.4506 36.7953C10.5005 36.7105 9.44172 36.3865 8.73612 36.1153C7.80171 35.7553 7.1361 35.3201 6.43289 34.6237C5.72969 33.9273 5.29768 33.2593 4.93288 32.3269C4.65887 31.6213 4.32887 30.5637 4.23767 28.6136C4.13847 26.506 4.11767 25.8732 4.10607 20.5336C4.09447 15.1939 4.11487 14.5619 4.20727 12.4535C4.29047 10.5051 4.61647 9.44504 4.88728 8.73984C5.24728 7.80423 5.68088 7.13982 6.37889 6.43701C7.0769 5.73421 7.74291 5.3014 8.67612 4.9366C9.38092 4.66139 10.4385 4.33419 12.3878 4.24139C14.497 4.14139 15.129 4.12139 20.4678 4.10979C25.8067 4.09819 26.4403 4.11819 28.5503 4.21099C30.4987 4.29579 31.5591 4.61859 32.2636 4.891C33.1984 5.251 33.8636 5.68341 34.5664 6.38261C35.2692 7.08182 35.7024 7.74543 36.0672 8.68064C36.3428 9.38344 36.67 10.4407 36.762 12.3911C36.8624 14.5003 36.8852 15.1327 36.8948 20.4712C36.9044 25.8096 36.8856 26.4436 36.7932 28.5512C36.708 30.5013 36.3848 31.5605 36.1132 32.2669C35.7532 33.2009 35.3192 33.8669 34.6208 34.5693C33.9224 35.2717 33.2572 35.7045 32.3236 36.0693C31.6195 36.3441 30.5607 36.6721 28.6131 36.7649C26.5039 36.8641 25.8719 36.8849 20.531 36.8965C15.1902 36.9081 14.5602 36.8865 12.451 36.7953M28.7551 9.81065C28.7559 10.2854 28.8975 10.7492 29.1619 11.1434C29.4263 11.5377 29.8017 11.8447 30.2406 12.0256C30.6795 12.2065 31.1622 12.2532 31.6276 12.1597C32.093 12.0663 32.5203 11.8369 32.8553 11.5006C33.1904 11.1643 33.4182 10.7362 33.5099 10.2704C33.6017 9.80468 33.5532 9.32218 33.3707 8.88395C33.1882 8.44572 32.8798 8.07145 32.4846 7.80849C32.0894 7.54553 31.6251 7.40567 31.1503 7.40662C30.514 7.40789 29.9041 7.66186 29.455 8.11268C29.0058 8.5635 28.7541 9.17426 28.7551 9.81065ZM10.2309 20.52C10.2421 26.192 14.8486 30.7797 20.5194 30.7689C26.1903 30.7581 30.7811 26.152 30.7703 20.48C30.7595 14.8079 26.1519 10.2191 20.4802 10.2303C14.8086 10.2415 10.2201 14.8487 10.2309 20.52ZM13.8334 20.5128C13.8308 19.1942 14.2192 17.9044 14.9496 16.8066C15.68 15.7088 16.7195 14.8523 17.9367 14.3452C19.1539 13.8382 20.4942 13.7036 21.7879 13.9582C23.0817 14.2129 24.2708 14.8455 25.2051 15.7761C26.1393 16.7066 26.7766 17.8932 27.0364 19.186C27.2962 20.4787 27.1668 21.8195 26.6646 23.0387C26.1625 24.2579 25.31 25.3008 24.2151 26.0355C23.1202 26.7703 21.832 27.1638 20.5134 27.1664C19.6379 27.1683 18.7706 26.9976 17.961 26.6642C17.1514 26.3308 16.4155 25.8412 15.7951 25.2233C15.1748 24.6054 14.6823 23.8714 14.3457 23.0632C14.0091 22.2549 13.835 21.3883 13.8334 20.5128Z" fill="#DFA1A1"/>
</svg>
