<svg width="40" height="41" viewBox="0 0 40 41" fill="none" xmlns="http://www.w3.org/2000/svg">
<path fill-rule="evenodd" clip-rule="evenodd" d="M34.1718 6.3127C30.4121 2.56627 25.4118 0.502023 20.084 0.500122C9.10567 0.500122 0.17094 9.39103 0.16712 20.3195C0.16521 23.8131 1.08294 27.2231 2.82577 30.2283L0 40.5001L10.5582 37.744C13.467 39.3236 16.7426 40.1551 20.0754 40.1561H20.084C31.0604 40.1561 39.9962 31.2642 40 20.3357C40.0019 15.0392 37.9324 10.0601 34.1718 6.31365V6.3127ZM20.084 36.8088H20.0773C17.1073 36.8079 14.1938 36.0133 11.6517 34.5127L11.0471 34.1554L4.78156 35.7909L6.45371 29.7113L6.06026 29.0878C4.40338 26.4648 3.52767 23.433 3.52958 20.3205C3.5334 11.2376 10.9593 3.84739 20.0908 3.84739C24.5122 3.84929 28.6683 5.56475 31.7939 8.67918C34.9196 11.7927 36.6394 15.9326 36.6376 20.3338C36.6337 29.4177 29.2079 36.8079 20.084 36.8079V36.8088ZM29.1639 24.4709C28.6663 24.2228 26.2198 23.0253 25.7632 22.86C25.3068 22.6945 24.9754 22.6119 24.644 23.108C24.3127 23.6042 23.3587 24.7199 23.0683 25.0496C22.778 25.3804 22.4877 25.4213 21.9901 25.1731C21.4927 24.9251 19.8892 24.4024 17.9879 22.7154C16.5087 21.402 15.5097 19.7807 15.2194 19.2845C14.9291 18.7885 15.1889 18.5204 15.4371 18.2743C15.6606 18.0519 15.9347 17.6955 16.1839 17.4066C16.4332 17.1177 16.5153 16.9105 16.6814 16.5807C16.8477 16.25 16.7646 15.9611 16.6404 15.713C16.5162 15.465 15.5212 13.0272 15.1058 12.0359C14.7018 11.0704 14.2912 11.2015 13.9866 11.1854C13.6962 11.1711 13.3649 11.1683 13.0326 11.1683C12.7002 11.1683 12.1616 11.2918 11.7051 11.7879C11.2487 12.284 9.96323 13.4824 9.96323 15.9192C9.96323 18.356 11.7462 20.7121 11.9954 21.0428C12.2447 21.3736 15.5049 26.3755 20.4966 28.5214C21.6837 29.0318 22.6109 29.3368 23.3338 29.565C24.5257 29.9423 25.6104 29.8891 26.468 29.7617C27.424 29.6191 29.4122 28.5632 29.8267 27.4066C30.2411 26.25 30.2411 25.2577 30.117 25.0515C29.9929 24.8453 29.6606 24.7208 29.163 24.4727L29.1639 24.4709Z" fill="#DFA1A1"/>
</svg>
